<?xml version="1.0" encoding="utf-8"?>
<!-- Generator: Adobe Illustrator 26.0.2, SVG Export Plug-In . SVG Version: 6.00 Build 0)  -->
<svg version="1.1" id="snackabra" xmlns="http://www.w3.org/2000/svg" xmlns:xlink="http://www.w3.org/1999/xlink" x="0px" y="0px"
	 viewBox="0 0 460.3 460.1" style="enable-background:new 0 0 460.3 460.1;" xml:space="preserve">
<style type="text/css">
	.st0{fill:#FFFFFF;}
	.st1{fill:#FF5C42;}
	.st2{fill:#151515;}
	.st3{fill:none;}
</style>
<rect id="Background" class="st0" width="456.5" height="456.5"/>
<path id="Body" class="st1" d="M373.5,387.7c-8,0.2-12.1-0.8-12.1-8.6v-17.4h-26.3v21c0,4.7-0.7,5.5-5.5,5.7
	c-4.7,0.2-9.7,0-14.9,0.1c-3.2-0.3-6.2,0.4-6.1,4.8c0.1,5.2-0.2,10.4,0.1,15.6c0.2,3.4-0.8,4.6-4.4,4.6c-14.8-0.2-29.6-0.2-44.4,0
	c-3.4,0-4.2-1.2-4.2-4.4c0.1-13.9,0-27.7,0.1-41.6c0-3-0.9-4.7-3.8-4.9c-2.7-0.2-5.5,0.2-8.2,0.2h-34.4c-3.1,0-5.6,2.5-5.6,5.6
	c0,13.6-0.1,27.3,0,40.9c0,3.6-1,4.9-4.8,4.8c-14.1-0.2-28.3-0.1-42.4,0c-5.7,0-5.7,0-5.7-5.7v-20.7h-14.5c-11.9,0-11.9,0-11.9-12
	v-14.2H98.5c-0.1,1.7-0.2,3.1-0.2,4.5c0,5.9-0.1,11.7-0.1,17.6c0,6.1-10.3,4.3-20.6,4.3c-3.6,0-5.4,0-5.3,3.7
	c0,6.2,0.2,12.5,0.3,18.7c0,2.2-0.4,3.7-3,3.6c-6.1,0-12.3,0.1-18.4,0c-3.5-0.1-5.2-1.3-5.2-5.5c0.2-45,0.1-90.1,0.1-135.2
	c0-21.9,0.1-43.7-0.1-65.6c0-3.4,1-4.3,4.3-4.2c5.7,0.2,11.5-0.1,17.2,0.1c3.8,0.2,5.1-1,5.1-4.9c-0.2-23.1-0.1-46.1-0.1-69.2v-5.1
	h17.2c8.5,0,8.5,0,8.5-8.3c0-4.8,0.3-12.1,0.3-17.2c6.6,0,23.8-0.2,26.1-0.2c0-1.3,0.2-15.1-0.1-22.2c-0.1-3.3,0.9-4.3,4.3-4.2
	c14.8,0.2,29.6,0,44.4,0.1c3.1,0,4.3-0.9,4.2-4.1c-0.2-6.3,0-12.5-0.1-18.8c0-2.4,0.5-3.6,3.3-3.6c32.8,0.1,65.6,0.1,98.4,0
	c2.8,0,3.4,1.1,3.3,3.6c-0.1,6.1,0.2,12.3-0.1,18.4c-0.1,3.6,1.1,4.6,4.6,4.5c14.3-0.2,28.5-0.1,42.8-0.1c5.4,0,5.4,0,5.4,5.3v21
	c8.1,0,15.5,0.1,22.9,0c2.6,0,3.5,0.8,3.5,3.4c-0.1,7.5-0.1,14.9-0.1,22.4h-53v26.5h-25.8v79.1h26c0,7.7,0.1,14.8-0.1,22
	c-0.1,3.1,0.8,4.2,4.1,4.2c14.9-0.1,29.9-0.1,44.8,0c3.3,0,4.1-1.2,4-4.2c-0.2-7.3-0.1-14.7-0.1-22H388v-26.6h26.2v90.5
	c0,38.2-0.1,76.5,0.1,114.7c0,3.8-1.1,4.8-4.7,4.6c-5.8-0.3-11.7-0.3-17.6,0c-3.3,0.1-4.4-0.9-4.3-4.3c0.2-7,0.1-14,0.1-21.4
	L373.5,387.7z M224.8,182.3V156h-26.5v-26h-52.6c0,7.5-0.2,14.7,0.1,21.9c0.1,3.3-0.9,4.4-4.2,4.3c-7.3-0.2-14.6-0.1-21.9-0.1v79.4
	h26c0,7.7,0.1,15.1-0.1,22.4c-0.1,2.8,0.9,3.7,3.7,3.7c15.2-0.1,30.4-0.1,45.6,0c2.9,0,3.6-1.1,3.6-3.8c-0.1-7.5-0.1-14.9-0.1-22.4
	h26.4L224.8,182.3z"/>
<path id="Left_Eye" class="st2" d="M198.4,234.8h-26.2v-53.1h52.6v53.1H198.4z"/>
<path id="Right_Eye" class="st2" d="M335.9,181.7h51.9c0,2.2,0,2.9,0,4.5c0.1,7.4,0.2,14.7,0.2,22.1v26.6h-52.9V182L335.9,181.7z"/>
<path id="Eyebrow" class="st3" d="M387,150.9c-7.4,0-14.8-0.1-22.3,0.1c-2.6,0-3.5-0.7-3.4-3.4c0.1-7.7,0-15.4,0-23.1l26.3,0.1
	c0.1,7.6,0.1,15.2,0.1,22.8C387.7,148.6,387.4,149.7,387,150.9z"/>
</svg>
